<?xml version="1.0" encoding="UTF-8"?>
<svg xmlns="http://www.w3.org/2000/svg" viewBox="0 0 750.9 1285.62">
  <defs>
    <style>
      .cls-1 {
        letter-spacing: 0em;
      }

      .cls-2 {
        font-size: 66.5px;
      }

      .cls-2, .cls-3 {
        font-family: BurbankBigCondensed-Bold, 'Burbank Big Condensed';
        font-weight: 700;
      }

      .cls-2, .cls-3, .cls-4 {
        fill: #fff;
      }

      .cls-3 {
        font-size: 116.05px;
      }

      .cls-4 {
        stroke-width: 0px;
      }
    </style>
  </defs>
  <g id="Calque_8" data-name="Calque 8">
    <path class="cls-4" d="M650.18,693.22c-1.12,0-2.24-.29-3.24-.86l-78.34-45c-2.57-1.48-3.82-4.5-3.04-7.36l44.7-163.47c.49-1.79,1.71-3.28,3.37-4.1,1.66-.83,3.59-.91,5.3-.23l84.62,33.47c3.12,1.24,4.79,4.65,3.85,7.87l-50.97,174.99c-.56,1.92-1.96,3.47-3.82,4.22-.78.31-1.61.47-2.43.47ZM579.44,638.57l66.8,38.37,47-161.36-72.35-28.62-41.46,151.61Z"/>
    <path class="cls-4" d="M743.93,503.35c-.79,0-1.59-.15-2.37-.45l-90.22-35.37c-6.12,4.75-20.26,14.76-33.66,17.12-3.53.63-6.92-1.74-7.54-5.28-.62-3.54,1.74-6.92,5.28-7.54,13.83-2.44,30.36-16.53,30.53-16.68l2.97-2.55,3.65,1.43,93.75,36.75c3.35,1.31,5,5.09,3.68,8.44-1.01,2.57-3.46,4.14-6.06,4.14Z"/>
    <rect class="cls-4" x="679.99" y="440.13" width="4.65" height="94.75" transform="translate(-24.77 938.35) rotate(-68.07)"/>
    <path class="cls-4" d="M708.92,565.76c-10.83,0-19.41-5.95-23.64-10.91-2-2.35-1.71-5.87.63-7.86,2.34-1.99,5.84-1.72,7.85.61,1.37,1.56,13.72,14.68,31.29.26,2.38-1.96,5.9-1.61,7.85.77,1.96,2.38,1.61,5.9-.77,7.85-8.3,6.81-16.22,9.29-23.21,9.29Z"/>
    <path class="cls-4" d="M683.52,657.64c-12.13,0-20.93-7.17-24.81-12.74-1.76-2.53-1.14-6.01,1.39-7.77,2.52-1.75,5.98-1.14,7.75,1.36,1.15,1.6,11.68,15.1,30.76,2.89,2.6-1.66,6.05-.9,7.71,1.69,1.66,2.6.9,6.05-1.69,7.71-7.77,4.97-14.87,6.86-21.1,6.86Z"/>
    <path class="cls-4" d="M667.09,697.9c-7.81,0-15.81-2.19-21.4-9.2-2.24-2.81-1.78-6.91,1.04-9.15,2.81-2.24,6.91-1.78,9.15,1.04,6.36,7.98,22.06,3.04,28.28.66l50.53-173.85-31.47,10.49c-3.41,1.14-7.1-.71-8.23-4.12-1.14-3.41.71-7.1,4.12-8.23l43.24-14.41c2.3-.76,4.83-.19,6.57,1.48,1.74,1.68,2.41,4.18,1.74,6.51l-54.86,188.76c-.52,1.79-1.78,3.26-3.46,4.06-.8.38-12.77,5.96-25.24,5.96Z"/>
    <text class="cls-2" transform="translate(602.33 622.5) rotate(19.87)"><tspan x="0" y="0">4</tspan></text>
    <path class="cls-4" d="M663.29,585.73c-.47,0-.95-.1-1.4-.32l-46.75-22.33c-1.62-.77-2.31-2.72-1.53-4.34.78-1.62,2.72-2.31,4.34-1.53l46.75,22.33c1.62.77,2.31,2.72,1.53,4.34-.56,1.17-1.72,1.85-2.94,1.85Z"/>
    <path class="cls-4" d="M677.21,534.5c-.51.52-.97,1.01-1.45,1.49-1.21,1.21-2.47,2.37-3.91,3.33-.13.08-.26.16-.39.24-.5.31-1.03.34-1.61.21-1.53-.35-3.01-.86-4.47-1.41-.42-.16-.83-.34-1.24-.51-.26-.1-.46-.06-.65.2-.61.84-1.26,1.66-1.87,2.5-.52.72-1,1.47-1.49,2.22-.58.89-1.17,1.77-1.73,2.67-.62,1-1.25,1.99-1.79,3.03-.78,1.51-1.55,3.04-1.94,4.72-.1.44-.23.89-.28,1.34-.11,1.06-.1,2.11.43,3.1.48.9,1.28,1.31,2.2,1.6,1.63.52,3.04.04,4.34-.92,1.17-.87,2.08-1.98,2.76-3.27.12-.24.44-.34.65-.18.05.04.07.2.03.28-.21.44-.44.87-.66,1.3-.66,1.27-1.46,2.46-2.38,3.55-1.05,1.25-2.22,2.37-3.65,3.18-1.01.57-2.07.86-3.28.79-1.32-.08-2.48-.54-3.6-1.12-.62-.33-1.13-.91-1.6-1.46-.48-.57-.78-1.25-.95-1.99-.16-.72-.15-1.44-.13-2.17.02-.77.19-1.5.36-2.23.28-1.22.77-2.38,1.35-3.48.74-1.4,1.51-2.8,2.32-4.16.72-1.21,1.49-2.38,2.26-3.56.74-1.12,1.49-2.24,2.25-3.35.9-1.32,1.81-2.63,2.72-3.94.16-.24.14-.34-.16-.48-.65-.31-1.3-.62-1.96-.91-1.08-.47-2.16-.93-3.24-1.39-1.17-.5-2.33-1.01-3.49-1.52-.2-.09-.25.06-.33.17-.77,1.11-1.51,2.23-2.3,3.32-1.5,2.09-3.03,4.16-4.55,6.23-.79,1.07-1.57,2.14-2.39,3.18-.78,1-1.6,1.96-2.39,2.95-.71.88-1.42,1.76-2.14,2.64-1.11,1.37-2.34,2.6-3.76,3.65-.76.57-1.58,1.02-2.55,1.03-.57,0-1.15-.03-1.68-.32-.84-.44-1.43-1.04-1.63-1.99-.15-.72.13-1.33.41-1.95.23-.5.64-.82,1.07-1.08.89-.53,1.87-.88,2.9-1.05.63-.11,1.26-.24,1.86-.46,1.21-.44,2.26-1.18,3.31-1.91,1.81-1.26,3.43-2.75,4.94-4.35,1.03-1.09,2-2.23,2.93-3.41,1.27-1.62,2.49-3.27,3.58-5.01.34-.54.71-1.06,1.08-1.58.26-.37.21-.6-.23-.73-1.06-.31-2.12-.62-3.2-.88-.83-.2-1.67-.39-2.51-.44-1.98-.1-3.83.39-5.54,1.43-1.57.96-2.81,2.25-3.79,3.79-.39.62-.73,1.28-1.1,1.93-.07.12-.13.26-.23.35-.08.07-.23.13-.33.1-.07-.02-.14-.19-.13-.29.06-.51.12-1.03.23-1.53.21-.99.38-1.99.78-2.93.5-1.15,1.03-2.28,1.79-3.27,1.7-2.18,3.88-3.66,6.62-4.21.82-.16,1.67-.21,2.5-.22,1.52-.02,2.98.34,4.45.74,1.9.52,3.78,1.12,5.6,1.87,2.85,1.18,5.7,2.38,8.57,3.51,1.88.74,3.79,1.4,5.7,2.08,1.22.44,2.45.88,3.69,1.25,1.38.4,2.76.41,4.08-.31.12-.07.26-.13.38-.19.41-.19.43-.18.54.2Z"/>
  </g>
  <g id="Calque_9" data-name="Calque 9">
    <path class="cls-4" d="M577,222.54c-44.51-3.37-48.12-.77-59.14,42.48,3.37-44.51.77-48.12-42.48-59.14,44.51,3.37,48.12.77,59.14-42.48-3.37,44.51-.77,48.12,42.48,59.14Z"/>
    <path class="cls-4" d="M581.99,191.8c-13.84-1.05-14.96-.24-18.39,13.21,1.05-13.84.24-14.96-13.21-18.39,13.84,1.05,14.96.24,18.39-13.21-1.05,13.84-.24,14.96,13.21,18.39Z"/>
    <path class="cls-4" d="M374.78,106.12c-30.52-.15-32.85,1.79-38.28,31.82.15-30.52-1.79-32.85-31.82-38.28,30.52.15,32.85-1.79,38.28-31.82-.15,30.52,1.79,32.85,31.82,38.28Z"/>
    <path class="cls-4" d="M452.51,65.08c-51.88-.25-55.85,3.05-65.08,54.1.25-51.88-3.05-55.85-54.1-65.08,51.88.25,55.85-3.05,65.08-54.1-.25,51.88,3.05,55.85,54.1,65.08Z"/>
    <path class="cls-4" d="M684.62,416.31c-30.23-8.04-33.05-6.71-46.2,21.67,8.04-30.23,6.71-33.05-21.67-46.2,30.23,8.04,33.05,6.71,46.2-21.67-8.04,30.23-6.71,33.05,21.67,46.2Z"/>
  </g>
  <g id="Calque_6" data-name="Calque 6">
    <path class="cls-4" d="M151.02,742.02c-3.47,0-6.88-.98-9.9-2.87-4.23-2.66-7.17-6.79-8.28-11.63L.47,148.3c-2.29-10.03,4-20.06,14.03-22.35l2.16-.49c10.03-2.29,20.06,4,22.35,14.03l132.38,579.21c2.29,10.03-4,20.06-14.03,22.35h0l-2.16.49c-1.38.32-2.78.47-4.17.47ZM20.81,139.99c-.25,0-.52.03-.8.09l-2.16.49c-1.93.44-3.19,2.45-2.75,4.38l132.38,579.21c.29,1.27,1.15,1.97,1.63,2.27s1.49.77,2.75.48l2.16-.49c1.93-.44,3.19-2.45,2.75-4.38L24.39,142.83c-.29-1.27-1.15-1.97-1.63-2.27-.38-.24-1.07-.57-1.95-.57Z"/>
    <path class="cls-4" d="M74.83,308.21l-11.96-9.05c27.34-36.12,81.44-34.76,111.25-30.73,14.17,1.91,28.34,1.98,42.12.2l19.14-2.47c2.71-.35,5.09-.85,7.26-1.54,9.22-2.9,14.93-8.13,16.96-15.56.82-3,.86-6.33.12-9.63-4.37-19.37-19.05-84.38-24.55-107.61-.09-.36-.17-.72-.27-1.07-1.26-4.82-4.61-8.77-9.21-10.84-4.73-2.13-10.1-2-14.73.36-29.83,15.17-70.28,3.71-71.98,3.22l-.34-.11c-25.09-8.57-46.52-8.47-63.7.31-23.86,12.19-31.84,37.53-31.91,37.78l-14.36-4.32c.38-1.28,9.71-31.5,39.26-46.72,20.92-10.77,46.28-11.21,75.37-1.31,2.47.68,37.13,9.85,60.87-2.22,8.7-4.42,18.79-4.67,27.68-.67,8.76,3.94,15.16,11.49,17.57,20.73.12.46.24.93.35,1.4,5.52,23.31,20.21,88.38,24.59,107.77,1.28,5.69,1.18,11.53-.29,16.89-2.38,8.71-8.99,20.27-26.93,25.91-3.02.95-6.24,1.64-9.83,2.1l-19.13,2.47c-15.08,1.95-30.57,1.88-46.05-.21-26.57-3.59-74.55-5.12-97.28,24.92Z"/>
    <text class="cls-3" transform="translate(88.6 243.83) rotate(-8.54)"><tspan x="0" y="0">H</tspan><tspan class="cls-1" x="46.54" y="0">X</tspan><tspan x="94.93" y="0">3</tspan></text>
  </g>
  <g id="moon">
    <path class="cls-4" d="M353.64,1285.62c-22.64,0-45.53-2.69-68.61-8.09-73.38-17.16-138.85-59.93-184.35-120.42-45.46-60.43-68.48-135.21-64.83-210.55,1.9-39.3,10.74-76.49,26.26-110.53,12.42-27.24,29.12-52.51,49.63-75.11,34.96-38.52,68.67-55.81,70.09-56.53,4.44-2.25,9.85-.47,12.09,3.97,2.24,4.43.47,9.84-3.96,12.09h0c-.32.16-32.63,16.84-65.39,53.12-43.7,48.39-67.5,106.89-70.75,173.86-7.15,147.56,91.81,279.02,235.29,312.57,61.84,14.46,122.31,8.26,179.73-18.44,139.8-65,208.17-224.32,159.03-370.59-20.97-62.41-53.63-105.93-102.79-136.94-4.2-2.65-5.46-8.21-2.81-12.41,2.65-4.2,8.21-5.46,12.41-2.81,52.85,33.35,87.88,79.88,110.24,146.43,25.08,74.65,21.73,155.78-9.44,228.45-31.18,72.69-87.67,131-159.05,164.2-39.73,18.47-80.83,27.73-122.81,27.74Z"/>
    <path class="cls-4" d="M89.91,1107.82c-3.86-7.58-14.1-13.89-14-22.4s-1.46-27.07,7-28c9.92-1.1,30.81,16.41,35.68,25.12,22.58,40.37,39.43,86.44,77.96,113.09,5.09,3.52,10.83,6.06,16.95,7,8.99,1.38,15.57-.65,20.41-8.21,3.48-5.44,4.91-13.69,2.17-18.99-.88-1.71.78-3.61,2.61-3,18.76,6.25,36.76,33.75,57.45,45.03,30.41,16.57,66.77,16.7,101.4,16.41,26.04-.22,55.27-1.78,72.82-21.01,10.06-11.02,14.31-25.96,19.81-39.83s13.57-28.16,27.35-33.9c10.94-4.56,23.54-2.86,34.88-6.33,22.25-6.8,33.69-30.76,42.56-52.27,8.17-19.8,16.49-40.52,14.89-61.88-1.39-18.54-10.13-35.6-15.42-53.42-4.59-15.45-6.14-33.35,1.2-47.21,1.46-2.75,5.49-2.53,6.69.35l19.75,47.48c10.61-1.73,11.82-17.07,7.18-26.76-4.64-9.69-12.52-19.14-10.71-29.73.74-4.34,3.13-8.46,2.72-12.84-.63-6.69-7.2-10.88-12.44-15.1-3.92-3.17-7.52-8.24-7.37-12.85.11-3.72.15-7.44-.47-11.11-2.33-13.73,3.93-29.09-1.61-42.28-2.63-6.26-7.58-11.2-11.31-16.87s-6.25-13.04-3.35-19.17l39.19,64.13,28.71,89.54v73.73l-37.71,114.88-45,60-93,68-73.03,22.54h-94.01l-115.96-37.54-79-72-25-37v-17.6Z"/>
    <ellipse class="cls-4" cx="89.13" cy="994.02" rx="16.68" ry="36.5" transform="translate(-77.58 10.03) rotate(-4.49)"/>
    <circle class="cls-4" cx="151.9" cy="961.42" r="13"/>
    <ellipse class="cls-4" cx="280.9" cy="1060.42" rx="46" ry="51" transform="translate(-626.68 444.23) rotate(-40.99)"/>
    <path class="cls-4" d="M520.22,1107.3c-11.38,4.32-31.57,11.25-53.92,15.57-4.07,8.66-11.94,14.42-20.36,15.23-5.96,9.58-12.6,22.05-12.04,29.32,0,0-1.11-18.81.8-31.33-8.44-4.07-13.49-13.5-13.03-23.78-13.05-4.05-39.78-13.41-45.77-23.89,0,0,28.73,13.26,48.89,11.95,3.36-6.73,9.03-11.62,15.42-13.66,6.41-13.2,15.33-35.73,14.69-57.91,0,0,3.46,38.31,2.5,59.63,1.81,1.03,3.44,2.32,4.88,3.82,16.4-22.62,54.4-83.08,53.62-156.83,0,0,10.55,106.53-47.13,170.09.34,2.06.46,4.2.34,6.38,11.7-.15,36.33-.91,51.11-4.59Z"/>
    <path class="cls-4" d="M529.9,1103.42c-2.09,1.57-5.49,2.84-9.68,3.88,6.11-2.32,9.68-3.88,9.68-3.88Z"/>
    <ellipse class="cls-4" cx="390.9" cy="986.42" rx="13" ry="10" transform="translate(-607.98 628.57) rotate(-48.67)"/>
    <ellipse class="cls-4" cx="579.4" cy="1025.42" rx="23" ry="9.5" transform="translate(-581.45 1224.48) rotate(-70.26)"/>
    <path class="cls-4" d="M216.99,1065.8c8.29,19.42,21.31,37.09,39.04,48.76,14.03,9.14,29.81,13.84,46.4,16.77,0,0-.05,1.19-.05,1.19-9.81.9-19.86.04-29.6-2.5-24.6-6.28-45.52-25.31-53.72-49.38-1.63-4.73-2.87-9.58-3.24-14.59,0,0,1.17-.24,1.17-.24h0Z"/>
    <ellipse class="cls-4" cx="212.42" cy="868.96" rx="84.14" ry="69.15" transform="translate(-677.22 775.44) rotate(-70.26)"/>
    <path class="cls-4" d="M129.09,898.29c-8.51-40.88,4.69-91.75,44.58-111.34,8.82-4.29,18.49-6.94,28.18-7.8-11.24,4.13-21.81,9.12-31.26,16.39-31.02,23.99-39.81,65.37-41.5,102.75h0Z"/>
  </g>
  <g id="spaceman">
    <path class="cls-4" d="M386.04,578.69c-17.7,0-36.78-2.55-56.96-7.62-47.75-12-84.93-33.77-86.49-34.69-1.83-1.08-3.12-2.9-3.54-4.99l-14.93-74.63c-.29-.93-.56-1.86-.83-2.79-18.47-64.1,9.56-132.68,68.18-166.77,57.34-33.35,107.8-24.21,140.03-10.66,45.55,19.14,80.14,58.91,92.55,106.4,9.72,37.21,5.33,76.54-12.71,113.73-13.56,27.96-29.89,44.79-30.58,45.5-19.48,19.73-44.36,31.58-73.96,35.27-6.68.83-13.61,1.25-20.76,1.25ZM253.08,525.08c9.51,5.23,41.58,21.93,79.97,31.53,59.8,14.95,105.89,6.56,137.02-24.95.13-.13,15.53-16.08,27.99-41.98,16.5-34.28,20.36-68.91,11.47-102.94-11.23-43-42.57-79.02-83.84-96.36-42.31-17.77-84.93-14.48-126.68,9.8-52.66,30.62-77.87,92.16-61.3,149.65.28.96.56,1.92.86,2.89.08.24.14.49.19.74l14.33,71.63Z"/>
    <path class="cls-4" d="M465.06,309.18c-47.71-1.87-99.21,16.61-125.5,58.1-15.44,23.86-23.27,52.93-19.53,81.27,3.49,27.75,17.89,54.98,40.55,71.64,41.83,29.82,95.12,6.94,134.77-16.32,4.04-2.39,7.86,3.38,3.97,6.15-16.91,11.7-34.73,21.99-54.21,28.95-23.55,8.49-50.59,11.45-74.44,2.11-16.53-6.21-30.72-18.09-41.31-31.91-27.44-35.09-32.34-84.8-14.88-125.38,12.31-28.64,32.56-51.86,60.36-66.29,27.96-14.21,60.09-19.35,91.11-15.6,4.67.83,3.85,7.58-.87,7.27h0Z"/>
    <path class="cls-4" d="M436.13,324.61c16.21,5.78,30.54,15.76,42.45,28.16,38.5,39.55,36.21,98.88,9.11,143.9-.87,1.47-2.76,1.95-4.22,1.09-1.27-.75-1.8-2.26-1.37-3.61,4.99-15.47,9.01-30.99,10.68-46.55,5.14-40.03-9.9-76.82-40.27-103.05-5.87-5.29-12.36-10.18-19-14.43-2.98-1.95-.79-6.6,2.62-5.51h0Z"/>
    <circle class="cls-4" cx="428.9" cy="356.42" r="12"/>
    <circle class="cls-4" cx="456.9" cy="379.42" r="8"/>
    <circle class="cls-4" cx="444.9" cy="409.42" r="9"/>
    <path class="cls-4" d="M342.42,799.77c-8.55,0-22.41-2.49-41.82-6.53-1.85-.38-3.44-.71-4.67-.96-15.4-3.08-34.32-10.02-35.12-10.32l-2.35-.86-1.36-2.1c-21.11-32.62-19-102.15-18.32-116.37-16.19-26.13-21.22-57.74-14.55-91.59,5.11-25.97,15.21-44.04,15.64-44.8l13.06,7.38-6.53-3.69,6.53,3.68c-.09.17-9.49,17.07-14.08,40.78-6.03,31.12-1.37,58.77,13.83,82.16l1.35,2.08-.15,2.47c-.05.76-4.39,74.93,14.53,107.65,5.49,1.93,19.28,6.58,30.46,8.82,1.27.25,2.89.59,4.79.99,23.53,4.9,37.3,6.95,40.93,6.09l3.64,14.55c-1.54.39-3.47.57-5.8.57Z"/>
    <path class="cls-4" d="M387.7,733.63c-39.02,0-96.17-11.21-145.34-65.16l11.09-10.1c54.62,59.92,119.81,62.83,153.82,59.24,7.71-.82,14.61-4.69,18.94-10.64,3.59-4.94,4.54-9.97,2.9-15.38-1.96-6.47-7.5-11.43-14.46-12.93l-11.6-2.5c-61.65-10.71-89.21-43.56-101.48-69.24-13.31-27.87-11.85-53.05-11.78-54.11l14.97.97-7.48-.49,7.49.47c-.01.23-1.22,22.87,10.63,47.28,15.73,32.41,46.14,52.71,90.37,60.36l.3.06,11.75,2.53c12.29,2.65,22.12,11.55,25.66,23.25,3,9.93,1.23,19.8-5.12,28.54-6.81,9.38-17.56,15.47-29.49,16.74-6.17.65-13.29,1.11-21.14,1.11Z"/>
    <path class="cls-4" d="M392.65,730.23c-20.83-28.17-1.39-64.57-.55-66.1l13.17,7.18-6.58-3.59,6.59,3.58c-.16.29-15.66,29.59-.56,50.02l-12.06,8.92Z"/>
    <path class="cls-4" d="M470.64,727.08c-5.38,0-10.55-1.04-14.2-2.77-8.22-3.9-14.08-10.68-16.96-19.59-3.7-11.47-1.58-24.37,5.66-34.5,4.68-6.55,4.14-21.71-1.41-39.57-8.28-26.68-40.47-55.31-40.8-55.6l9.92-11.25c1.45,1.28,35.69,31.74,45.2,62.4,7.22,23.26,6.96,41.98-.72,52.73-4.49,6.29-5.83,14.21-3.59,21.18,1.62,5.02,4.6,8.5,9.12,10.65,5.04,2.39,15.64,1.21,17.5-1.31,14.27-19.22,19.58-48.54,19.64-48.83l.06-.33c13.34-59.96-35.81-106.93-36.31-107.4l10.27-10.94c.57.54,14.22,13.46,26.08,34.76,15.83,28.43,20.89,58.4,14.64,86.68-.52,2.89-6.36,33.49-22.33,55-4.61,6.21-13.46,8.68-21.78,8.68Z"/>
    <path class="cls-4" d="M485.94,704.71c-.96-9.11-4.17-15.78-9.55-19.83-9.24-6.96-22.45-4.72-22.58-4.7l-2.71-14.75c.79-.15,19.62-3.5,34.19,7.37,8.91,6.65,14.15,16.86,15.57,30.34l-14.92,1.57Z"/>
    <path class="cls-4" d="M416,945.54c-24,0-46.24-17.79-47.31-18.66l-.35-.3c-53.06-48.72-21.45-196.17-20.08-202.42.89-4.04,4.89-6.61,8.93-5.72,4.04.89,6.61,4.88,5.72,8.93-.08.37-8.08,37.27-9.86,79.18-2.29,53.72,6.44,91.33,25.24,108.8,2.11,1.65,25.38,19.32,44.92,14.32,9.1-2.33,16.4-9.64,21.69-21.72-.25-5.76-1.09-25.19-1.7-44.5-.59-18.77,1.31-37.73,5.64-56.36,5.27-22.66,7.27-40.96,5.64-51.53-3.7-24.05-20.55-50.24-20.72-50.5-2.25-3.47-1.27-8.12,2.21-10.37,3.47-2.26,8.11-1.27,10.37,2.2.76,1.18,18.77,29.11,22.97,56.39,1.96,12.77,0,32.02-5.86,57.21-4.04,17.36-5.8,35.02-5.26,52.49.71,22.8,1.76,45.77,1.77,46l.08,1.66-.63,1.54c-7.25,17.62-18.2,28.4-32.54,32.05-3.62.92-7.27,1.32-10.88,1.32Z"/>
    <path class="cls-4" d="M357.65,905.78c-1.17,0-2.36-.28-3.47-.86-3.66-1.92-5.08-6.44-3.17-10.1.68-1.3,16.95-31.89,47.87-40.6,17.88-5.04,36.69-1.74,55.92,9.79,3.55,2.13,4.7,6.74,2.57,10.29-2.13,3.55-6.74,4.7-10.29,2.57-15.5-9.3-30.32-12.08-44.04-8.24-24.65,6.89-38.6,32.88-38.74,33.14-1.34,2.55-3.95,4.01-6.65,4.01Z"/>
    <path class="cls-4" d="M491.03,695.32c20.49-1.82,37.29,11.46,43.61,30.47,5.28,15.9,3.78,32.96.98,49-.55,2.75-1.23,6.86-1.85,9.55-.55,2.63-1.45,6.52-1.82,9.14-2.77,19.05-4.39,38.93.26,57.66.57,1.66,1.1,3.47,1.74,5.18,2.41,6.43,3.94,13.24,4.19,20.16.85,30.34-16.76,46.87-47.01,44.44-13.48-1.05-26.04-4.9-38.23-9.19-2.95-1.04-4.5-4.27-3.46-7.22,1.06-3.03,4.46-4.57,7.43-3.38,18.23,6.8,50.64,17.39,64.66-.63,4.77-6.26,6.27-15.6,6.04-23.64-.14-6.61-2.11-12.88-4.45-19.07-7.14-20.59-5.17-47.25-1.96-68.48.47-2.63,1.23-6.72,1.7-9.35.2-1.54.68-5.28.88-6.84,2.46-25.97.05-62.08-31.27-66.38-.27-.04-.68-.07-.74-.11l-2.85-1.69c-4.27-2.47-2.78-9.17,2.12-9.61h0Z"/>
    <path class="cls-4" d="M450.93,877.93c-1.42,0-2.86-.4-4.13-1.25-3.45-2.28-4.4-6.91-2.13-10.37.32-.48,7.96-11.95,21.68-20.66,12.99-8.24,33.97-15.55,60.17-3.55,3.77,1.72,5.42,6.18,3.7,9.94-1.72,3.77-6.17,5.42-9.94,3.7-38.25-17.52-62.09,17.35-63.09,18.84-1.45,2.17-3.83,3.34-6.26,3.34Z"/>
    <path class="cls-4" d="M259.07,782.5c-17.91,0-32.05-4.08-43.14-12.43-10.44-7.86-16.92-18.3-23.71-30.13-3.59-6.25-9.66-24.99-20.92-115.15-6.12-49.07-10.82-96.16-10.87-96.63l-.03-.47c-1.09-29.74,6.17-52.5,21.56-67.65,20.25-19.94,46.95-18.8,48.07-18.74,4.14.22,7.32,3.74,7.1,7.88-.22,4.13-3.72,7.29-7.85,7.1-.35-.02-21.53-.71-36.93,14.58-12.14,12.05-17.85,30.91-16.97,56.05,7.16,71.93,21.56,191.14,29.84,205.56,11.19,19.49,20.87,36.34,57.9,34.95,4.17-.12,7.62,3.08,7.77,7.22.15,4.14-3.08,7.62-7.22,7.77-1.56.06-3.1.09-4.61.09Z"/>
    <path class="cls-4" d="M348.55,827.01c-2.13,0-4.24-.9-5.72-2.65-2.68-3.16-2.3-7.88.86-10.56.63-.53,15.59-13.13,37.15-20.18,29.35-9.59,56.67-4.31,79.01,15.27,3.12,2.73,3.43,7.47.7,10.58-2.73,3.12-7.47,3.43-10.58.7-18.29-16.03-39.83-20.21-64.04-12.43-18.86,6.06-32.38,17.38-32.52,17.49-1.41,1.19-3.13,1.77-4.84,1.77Z"/>
    <path class="cls-4" d="M454.91,822.02c-2.03,0-4.04-.81-5.52-2.42-2.8-3.04-2.61-7.77.42-10.57.38-.35,9.41-8.62,23.17-13.67,18.73-6.88,37.27-4.68,53.62,6.35,3.43,2.32,4.34,6.98,2.02,10.41-2.32,3.43-6.98,4.34-10.41,2.02-29.42-19.87-57.07,4.85-58.23,5.92-1.44,1.32-3.26,1.97-5.07,1.97Z"/>
    <path class="cls-4" d="M347.52,786.64c-2,0-3.99-.79-5.47-2.36-2.84-3.02-2.69-7.77.33-10.6.61-.57,15.12-14.06,37.53-22.39,30.16-11.21,60.16-7.69,86.75,10.16,3.44,2.31,4.35,6.97,2.04,10.41-2.31,3.44-6.97,4.35-10.41,2.04-54.34-36.49-105.14,10.22-105.64,10.7-1.45,1.36-3.29,2.03-5.13,2.03Z"/>
    <path class="cls-4" d="M459.49,773.24c-2.39,0-4.74-1.14-6.2-3.26-2.34-3.42-1.46-8.09,1.95-10.43,1.47-1.01,36.52-24.47,74.53-5.33,3.7,1.86,5.19,6.37,3.33,10.07-1.86,3.7-6.37,5.19-10.07,3.33-30.19-15.2-59.02,4.11-59.31,4.31-1.29.89-2.77,1.31-4.23,1.31Z"/>
    <path class="cls-4" d="M342.4,726.42c-3.03,0-5.88-1.84-7.01-4.84-14.82-39.04,3.29-66.32,14.94-75.29,3.28-2.53,7.99-1.92,10.52,1.37,2.52,3.27,1.92,7.96-1.33,10.49-1.07.85-24.54,20.07-10.1,58.11,1.47,3.87-.48,8.2-4.35,9.67-.88.33-1.78.49-2.66.49Z"/>
    <path class="cls-4" d="M505.41,654.42c-2.18,0-4.33-.94-5.82-2.76-6.99-8.56-16.28-12.39-27.58-11.35-8.78.8-15.53,4.25-15.6,4.28-3.67,1.93-8.2.52-10.13-3.15s-.52-8.2,3.15-10.13c12.8-6.74,42.2-13.14,61.79,10.86,2.62,3.21,2.14,7.93-1.07,10.55-1.39,1.14-3.07,1.69-4.74,1.69Z"/>
  </g>
</svg>